<?xml version="1.0" encoding="UTF-8" standalone="no"?>
<!DOCTYPE svg PUBLIC "-//W3C//DTD SVG 1.1//EN"
 "http://www.w3.org/Graphics/SVG/1.1/DTD/svg11.dtd">
<!-- Generated by graphviz version 2.40.1 (20161225.0304)
 -->
<!-- Title: pdsp Pages: 1 -->
<svg width="1907pt" height="245pt"
 viewBox="0.00 0.00 1907.00 245.00" xmlns="http://www.w3.org/2000/svg" xmlns:xlink="http://www.w3.org/1999/xlink">
<g id="graph0" class="graph" transform="scale(1 1) rotate(0) translate(4 241)">
<title>pdsp</title>
<polygon fill="#ffffff" stroke="transparent" points="-4,4 -4,-241 1903,-241 1903,4 -4,4"/>
<g id="clust1" class="cluster">
<title>cluster_felixbr</title>
<polygon fill="none" stroke="#000000" points="1551,-8 1551,-144 1724,-144 1724,-8 1551,-8"/>
<text text-anchor="middle" x="1637.5" y="-128.8" font-family="Times,serif" font-size="14.00" fill="#000000">FELIX BR (1 link, 10/APA)</text>
</g>
<g id="clust2" class="cluster">
<title>cluster_tcfinder</title>
<polygon fill="none" stroke="#000000" points="8,-61 8,-140 857,-140 857,-61 8,-61"/>
<text text-anchor="middle" x="432.5" y="-124.8" font-family="Times,serif" font-size="14.00" fill="#000000">Trigger Candidate Finder (1/APA, 6/PDSP)</text>
</g>
<g id="clust3" class="cluster">
<title>cluster_mltproc</title>
<polygon fill="none" stroke="#000000" points="944,-66 944,-143 1457,-143 1457,-66 944,-66"/>
<text text-anchor="middle" x="1200.5" y="-127.8" font-family="Times,serif" font-size="14.00" fill="#000000">Module Level Trigger (1/PDSP)</text>
</g>
<g id="clust4" class="cluster">
<title>cluster_artdaq</title>
<polygon fill="none" stroke="#000000" points="1580,-152 1580,-229 1891,-229 1891,-152 1580,-152"/>
<text text-anchor="middle" x="1735.5" y="-213.8" font-family="Times,serif" font-size="14.00" fill="#000000">artdaq back&#45;end</text>
</g>
<!-- fx_hf -->
<g id="node1" class="node">
<title>fx_hf</title>
<polygon fill="none" stroke="#000000" points="1581,-17 1581,-55 1694,-55 1694,-17 1581,-17"/>
<text text-anchor="middle" x="1602.5" y="-32.3" font-family="Times,serif" font-size="14.00" fill="#000000">PUB</text>
<polyline fill="none" stroke="#000000" points="1624,-17 1624,-55 "/>
<text text-anchor="middle" x="1659" y="-39.8" font-family="Times,serif" font-size="14.00" fill="#000000">hit finder</text>
<text text-anchor="middle" x="1659" y="-24.8" font-family="Times,serif" font-size="14.00" fill="#000000">algorithm</text>
</g>
<!-- tp_win -->
<g id="node3" class="node">
<title>tp_win</title>
<polygon fill="none" stroke="#000000" points="16,-70 16,-108 210,-108 210,-70 16,-70"/>
<text text-anchor="middle" x="37.5" y="-85.3" font-family="Times,serif" font-size="14.00" fill="#000000">SUB</text>
<polyline fill="none" stroke="#000000" points="59,-70 59,-108 "/>
<text text-anchor="middle" x="109" y="-92.8" font-family="Times,serif" font-size="14.00" fill="#000000">windowing</text>
<text text-anchor="middle" x="109" y="-77.8" font-family="Times,serif" font-size="14.00" fill="#000000">1/link, 10/APA</text>
<polyline fill="none" stroke="#000000" points="159,-70 159,-108 "/>
<text text-anchor="middle" x="184.5" y="-85.3" font-family="Times,serif" font-size="14.00" fill="#000000">PUSH</text>
</g>
<!-- fx_hf&#45;&gt;tp_win -->
<g id="edge5" class="edge">
<title>fx_hf:o&#45;&gt;tp_win:i</title>
<path fill="none" stroke="#000000" d="M1580.5,-36C1478.9435,-36 1453.5565,-37 1352,-37 293,-37 293,-37 293,-37 181.8658,-37 45.8041,39.6915 37.4088,-59.8121"/>
<polygon fill="#000000" stroke="#000000" points="33.9038,-59.8677 37,-70 40.8982,-60.1484 33.9038,-59.8677"/>
<text text-anchor="middle" x="767.5" y="-40.8" font-family="Times,serif" font-size="14.00" fill="#000000">(1&#45;&gt;1) tpc://</text>
</g>
<!-- fx_prep -->
<g id="node2" class="node">
<title>fx_prep</title>
<polygon fill="none" stroke="#000000" points="1573,-74 1573,-112 1702,-112 1702,-74 1573,-74"/>
<text text-anchor="middle" x="1594.5" y="-89.3" font-family="Times,serif" font-size="14.00" fill="#000000">SUB</text>
<polyline fill="none" stroke="#000000" points="1616,-74 1616,-112 "/>
<text text-anchor="middle" x="1659" y="-96.8" font-family="Times,serif" font-size="14.00" fill="#000000">data prep</text>
<text text-anchor="middle" x="1659" y="-81.8" font-family="Times,serif" font-size="14.00" fill="#000000">compression</text>
</g>
<!-- tp_zip -->
<g id="node4" class="node">
<title>tp_zip</title>
<polygon fill="none" stroke="#000000" points="376,-71 376,-107 527,-107 527,-71 376,-71"/>
<text text-anchor="middle" x="401" y="-85.3" font-family="Times,serif" font-size="14.00" fill="#000000">PULL</text>
<polyline fill="none" stroke="#000000" points="426,-71 426,-107 "/>
<text text-anchor="middle" x="451" y="-85.3" font-family="Times,serif" font-size="14.00" fill="#000000">zipper</text>
<polyline fill="none" stroke="#000000" points="476,-71 476,-107 "/>
<text text-anchor="middle" x="501.5" y="-85.3" font-family="Times,serif" font-size="14.00" fill="#000000">PUSH</text>
</g>
<!-- tp_win&#45;&gt;tp_zip -->
<g id="edge1" class="edge">
<title>tp_win:o&#45;&gt;tp_zip:i</title>
<path fill="none" stroke="#000000" d="M210,-89C280.3194,-89 300.3715,-89 365.9783,-89"/>
<polygon fill="#000000" stroke="#000000" points="366,-92.5001 376,-89 366,-85.5001 366,-92.5001"/>
<text text-anchor="middle" x="293" y="-92.8" font-family="Times,serif" font-size="14.00" fill="#000000">(10&#45;&gt;1) inproc://</text>
</g>
<!-- tp_find -->
<g id="node5" class="node">
<title>tp_find</title>
<polygon fill="none" stroke="#000000" points="686,-72 686,-108 849,-108 849,-72 686,-72"/>
<text text-anchor="middle" x="711" y="-86.3" font-family="Times,serif" font-size="14.00" fill="#000000">PULL</text>
<polyline fill="none" stroke="#000000" points="736,-72 736,-108 "/>
<text text-anchor="middle" x="771" y="-86.3" font-family="Times,serif" font-size="14.00" fill="#000000">TC finder</text>
<polyline fill="none" stroke="#000000" points="806,-72 806,-108 "/>
<text text-anchor="middle" x="827.5" y="-86.3" font-family="Times,serif" font-size="14.00" fill="#000000">PUB</text>
</g>
<!-- tp_zip&#45;&gt;tp_find -->
<g id="edge2" class="edge">
<title>tp_zip:o&#45;&gt;tp_find:i</title>
<path fill="none" stroke="#000000" d="M527,-89C594.0795,-89 613.4013,-89.901 675.6303,-89.9925"/>
<polygon fill="#000000" stroke="#000000" points="675.9974,-93.4927 686,-90 676.0026,-86.4927 675.9974,-93.4927"/>
<text text-anchor="middle" x="606.5" y="-92.8" font-family="Times,serif" font-size="14.00" fill="#000000">(1&#45;&gt;1) inproc://</text>
</g>
<!-- mt_zip -->
<g id="node6" class="node">
<title>mt_zip</title>
<polygon fill="none" stroke="#000000" points="952,-75 952,-111 1096,-111 1096,-75 952,-75"/>
<text text-anchor="middle" x="973.5" y="-89.3" font-family="Times,serif" font-size="14.00" fill="#000000">SUB</text>
<polyline fill="none" stroke="#000000" points="995,-75 995,-111 "/>
<text text-anchor="middle" x="1020" y="-89.3" font-family="Times,serif" font-size="14.00" fill="#000000">zipper</text>
<polyline fill="none" stroke="#000000" points="1045,-75 1045,-111 "/>
<text text-anchor="middle" x="1070.5" y="-89.3" font-family="Times,serif" font-size="14.00" fill="#000000">PUSH</text>
</g>
<!-- tp_find&#45;&gt;mt_zip -->
<g id="edge6" class="edge">
<title>tp_find:o&#45;&gt;mt_zip:i</title>
<path fill="none" stroke="#000000" d="M849.5,-90C891.5145,-90 904.4426,-92.5496 941.9124,-92.9479"/>
<polygon fill="#000000" stroke="#000000" points="941.982,-96.4482 952,-93 942.0182,-89.4483 941.982,-96.4482"/>
<text text-anchor="middle" x="900.5" y="-95.8" font-family="Times,serif" font-size="14.00" fill="#000000">(6&#45;&gt;1) tpc://</text>
</g>
<!-- mt_td -->
<g id="node7" class="node">
<title>mt_td</title>
<polygon fill="none" stroke="#000000" points="1255,-75 1255,-111 1449,-111 1449,-75 1255,-75"/>
<text text-anchor="middle" x="1280" y="-89.3" font-family="Times,serif" font-size="14.00" fill="#000000">PULL</text>
<polyline fill="none" stroke="#000000" points="1305,-75 1305,-111 "/>
<text text-anchor="middle" x="1355.5" y="-89.3" font-family="Times,serif" font-size="14.00" fill="#000000">trigger decision</text>
<polyline fill="none" stroke="#000000" points="1406,-75 1406,-111 "/>
<text text-anchor="middle" x="1427.5" y="-89.3" font-family="Times,serif" font-size="14.00" fill="#000000">PUB</text>
</g>
<!-- mt_zip&#45;&gt;mt_td -->
<g id="edge3" class="edge">
<title>mt_zip:o&#45;&gt;mt_td:i</title>
<path fill="none" stroke="#000000" d="M1096,-93C1163.0781,-93 1182.4024,-93 1244.6305,-93"/>
<polygon fill="#000000" stroke="#000000" points="1245,-96.5001 1255,-93 1245,-89.5001 1245,-96.5001"/>
<text text-anchor="middle" x="1175.5" y="-96.8" font-family="Times,serif" font-size="14.00" fill="#000000">(1&#45;&gt;1) inproc://</text>
</g>
<!-- mt_td&#45;&gt;fx_prep -->
<g id="edge8" class="edge">
<title>mt_td:o&#45;&gt;fx_prep:i</title>
<path fill="none" stroke="#000000" d="M1449,-93C1500.3511,-93 1515.6712,-93 1562.3777,-93"/>
<polygon fill="#000000" stroke="#000000" points="1562.5,-96.5001 1572.5,-93 1562.5,-89.5001 1562.5,-96.5001"/>
<text text-anchor="middle" x="1504" y="-96.8" font-family="Times,serif" font-size="14.00" fill="#000000">(1&#45;&gt;60) tpc://</text>
</g>
<!-- ad_td -->
<g id="node8" class="node">
<title>ad_td</title>
<polygon fill="none" stroke="#000000" points="1588,-161 1588,-197 1687,-197 1687,-161 1588,-161"/>
<text text-anchor="middle" x="1609.5" y="-175.3" font-family="Times,serif" font-size="14.00" fill="#000000">SUB</text>
<polyline fill="none" stroke="#000000" points="1631,-161 1631,-197 "/>
<text text-anchor="middle" x="1659" y="-175.3" font-family="Times,serif" font-size="14.00" fill="#000000">TD BR</text>
</g>
<!-- mt_td&#45;&gt;ad_td -->
<g id="edge7" class="edge">
<title>mt_td:o&#45;&gt;ad_td:i</title>
<path fill="none" stroke="#000000" d="M1449,-93C1460.6322,-93 1457.8102,-104.8687 1467,-112 1512.5745,-147.3658 1524.8266,-175.5229 1577.2307,-178.7011"/>
<polygon fill="#000000" stroke="#000000" points="1577.4024,-182.2075 1587.5,-179 1577.6061,-175.2105 1577.4024,-182.2075"/>
<text text-anchor="middle" x="1504" y="-172.8" font-family="Times,serif" font-size="14.00" fill="#000000">(1&#45;&gt;1) tpc://</text>
</g>
<!-- ad_eb -->
<g id="node9" class="node">
<title>ad_eb</title>
<polygon fill="none" stroke="#000000" points="1791,-161 1791,-197 1883,-197 1883,-161 1791,-161"/>
<text text-anchor="middle" x="1837" y="-175.3" font-family="Times,serif" font-size="14.00" fill="#000000">Event Builder</text>
</g>
<!-- ad_td&#45;&gt;ad_eb -->
<g id="edge4" class="edge">
<title>ad_td&#45;&gt;ad_eb</title>
<path fill="none" stroke="#000000" d="M1687.0709,-179C1715.4587,-179 1751.1781,-179 1780.6309,-179"/>
<polygon fill="#000000" stroke="#000000" points="1780.7651,-182.5001 1790.7651,-179 1780.765,-175.5001 1780.7651,-182.5001"/>
</g>
<!-- ad_eb&#45;&gt;fx_prep -->
<g id="edge9" class="edge">
<title>ad_eb&#45;&gt;fx_prep</title>
<path fill="none" stroke="#000000" d="M1785.705,-156.8879C1756.7287,-144.3968 1720.547,-128.7997 1691.1872,-116.1434"/>
<polygon fill="#000000" stroke="#000000" points="1784.6666,-160.2515 1795.2352,-160.9961 1787.4377,-153.8234 1784.6666,-160.2515"/>
<polygon fill="#000000" stroke="#000000" points="1692.3442,-112.8308 1681.7755,-112.0862 1689.5731,-119.259 1692.3442,-112.8308"/>
</g>
</g>
</svg>
